<svg width="79" height="79" viewBox="0 0 79 79" fill="none" xmlns="http://www.w3.org/2000/svg">
<g clip-path="url(#clip0_1_223)">
<path d="M73.936 14.1795H5.06418C2.26662 14.1795 0 11.9128 0 9.11545C0 6.31804 2.26662 4.05127 5.06418 4.05127H73.936C76.7334 4.05127 79 6.31789 79 9.11545C79 11.913 76.7334 14.1795 73.936 14.1795Z" fill="#FF4800"/>
<path d="M45.577 44.5641H5.06418C2.26662 44.5641 0 42.2974 0 39.5C0 36.7026 2.26662 34.4358 5.06418 34.4358H45.577C48.3744 34.4358 50.6412 36.7024 50.6412 39.5C50.6412 42.2975 48.3744 44.5641 45.577 44.5641Z" fill="#FF4800"/>
<path d="M73.9361 44.5641H65.8335C63.0361 44.5641 60.7693 42.2975 60.7693 39.5C60.7693 36.7024 63.0359 34.4358 65.8335 34.4358H73.9361C76.7335 34.4358 79.0001 36.7024 79.0001 39.5C79.0001 42.2975 76.7335 44.5641 73.9361 44.5641Z" fill="#FF4800" fill-opacity="0.5"/>
<path d="M73.936 74.9488H5.06418C2.26662 74.9488 0 72.682 0 69.8846C0 67.0872 2.26662 64.8204 5.06418 64.8204H73.936C76.7334 64.8204 79 67.0871 79 69.8846C79 72.682 76.7334 74.9488 73.936 74.9488Z" fill="#FF4800"/>
</g>
<defs>
<clipPath id="clip0_1_223">
<rect width="79" height="79" fill="white"/>
</clipPath>
</defs>
</svg>
