<svg width="54" height="54" viewBox="0 0 54 54" fill="none" xmlns="http://www.w3.org/2000/svg">
<path d="M26.9998 0C17.3626 0 9.52197 7.84058 9.52197 17.4778C9.52197 26.0963 15.4999 37.393 20.5149 45.3521C20.8383 45.8657 21.5167 46.0197 22.0305 45.6961C22.5438 45.3726 22.6978 44.6941 22.3742 44.1807C13.5683 30.2043 11.7199 21.9452 11.7199 17.4778C11.7199 9.05247 18.5744 2.19778 27 2.19778C35.4256 2.19778 42.2801 9.05229 42.2801 17.4778C42.2801 31.1605 26.292 52.0203 26.1304 52.2293C25.7595 52.7097 25.848 53.3998 26.3284 53.7707C26.5284 53.9253 26.7648 54 26.9995 54C27.328 54 27.6533 53.8531 27.8698 53.5729C28.548 52.6953 44.478 31.9107 44.478 17.4777C44.4777 7.84058 36.6373 0 26.9998 0Z" fill="#FF4800"/>
<path d="M27 11.9047C27.6068 11.9047 28.0989 11.4126 28.0989 10.8058C28.0989 10.199 27.6068 9.70691 27 9.70691C22.7151 9.70691 19.229 13.193 19.229 17.4779C19.229 21.7628 22.7151 25.2489 27 25.2489C31.2849 25.2489 34.771 21.7628 34.771 17.4779C34.771 15.7666 34.2254 14.1431 33.1928 12.7829C32.8259 12.2996 32.1366 12.2052 31.6531 12.5721C31.1697 12.9389 31.0752 13.6283 31.4422 14.1118C32.1822 15.0863 32.5732 16.2504 32.5732 17.4779C32.5732 20.5509 30.073 23.0511 27 23.0511C23.9269 23.0511 21.4268 20.5509 21.4268 17.4779C21.4268 14.4048 23.9271 11.9047 27 11.9047Z" fill="#FF4800"/>
</svg>
