<svg width="59" height="59" viewBox="0 0 59 59" fill="none" xmlns="http://www.w3.org/2000/svg">
<path d="M26.5698 3.93335C26.027 3.93335 25.5913 4.37389 25.5913 4.91664C25.5913 5.4594 26.0358 5.89994 26.5796 5.89994C27.1234 5.89994 27.5629 5.4594 27.5629 4.91664C27.5629 4.37389 27.1234 3.93335 26.5796 3.93335H26.5698Z" fill="#FF4800"/>
<path d="M27.5332 53.1C27.5332 54.1846 28.4152 55.0667 29.4999 55.0667C30.5845 55.0667 31.4666 54.1847 31.4666 53.1C31.4666 52.0154 30.5846 51.1333 29.4999 51.1333C28.4153 51.1333 27.5332 52.0154 27.5332 53.1Z" fill="#FF4800"/>
<path d="M14.75 45.2333C15.2928 45.2333 15.7333 44.7928 15.7333 44.25V4.91671C15.7333 3.48296 17.2496 1.96671 18.6833 1.96671H40.3166C41.7503 1.96671 43.2666 3.48296 43.2666 4.91671C43.2666 5.45946 43.7071 5.9 44.2499 5.9C44.7926 5.9 45.2332 5.45946 45.2332 4.91671C45.2333 2.3895 42.8438 0 40.3167 0H18.6833C16.1561 0 13.7666 2.3895 13.7666 4.91671V44.25C13.7667 44.7928 14.2073 45.2333 14.75 45.2333Z" fill="#FF4800"/>
<path d="M30.4833 3.93335C29.9405 3.93335 29.5 4.37389 29.5 4.91664C29.5 5.4594 29.9405 5.89994 30.4833 5.89994H34.4166C34.9593 5.89994 35.3999 5.4594 35.3999 4.91664C35.3999 4.37389 34.9593 3.93335 34.4166 3.93335H30.4833Z" fill="#FF4800"/>
<path d="M38.3501 17.7C38.6019 17.7 38.8536 17.6037 39.0453 17.4119C39.4299 17.0274 39.4299 16.4059 39.0453 16.0215L37.0786 14.0548C36.6941 13.6704 36.0726 13.6704 35.6882 14.0548C35.3038 14.4393 35.3038 15.0608 35.6882 15.4452L37.6549 17.4119C37.8467 17.6037 38.0983 17.7 38.3501 17.7Z" fill="#FF4800"/>
<path d="M29.7883 14.0548C29.4039 14.4393 29.4039 15.0608 29.7883 15.4452L37.655 23.3119C37.8468 23.5036 38.0986 23.6 38.3502 23.6C38.602 23.6 38.8537 23.5036 39.0454 23.3119C39.43 22.9273 39.43 22.3059 39.0454 21.9215L31.1787 14.0548C30.7943 13.6702 30.1729 13.6702 29.7883 14.0548Z" fill="#FF4800"/>
<path d="M44.2499 7.8667H18.6832C18.1404 7.8667 17.6999 8.30724 17.6999 8.84999C17.6999 9.39275 18.1404 9.83329 18.6832 9.83329H43.2665V54.0833C43.2665 55.517 41.7502 57.0333 40.3165 57.0333H18.6832C17.2494 57.0333 15.7332 55.517 15.7332 54.0833V49.1666H40.3165C40.8592 49.1666 41.2998 48.726 41.2998 48.1833C41.2998 47.6405 40.8592 47.2 40.3165 47.2H14.7499C14.2071 47.2 13.7666 47.6405 13.7666 48.1833V54.0833C13.7666 56.6105 16.1561 59 18.6833 59H40.3166C42.8438 59 45.2333 56.6105 45.2333 54.0833V8.84999C45.2332 8.30724 44.7926 7.8667 44.2499 7.8667Z" fill="#FF4800"/>
</svg>
